<?xml version="1.0"?>
<svg xmlns="http://www.w3.org/2000/svg" height="512px" viewBox="-13 0 511 511.99996" width="512px" class=""><g><path d="m84.453125 409.980469-34.167969 34.171875c-2.929687 2.929687-2.929687 7.675781 0 10.605468 1.464844 1.464844 3.382813 2.195313 5.300782 2.195313 1.921874 0 3.839843-.730469 5.304687-2.195313l34.167969-34.171874c2.929687-2.925782 2.929687-7.675782 0-10.605469-2.925782-2.929688-7.675782-2.929688-10.605469 0zm-31.429687-125.257813c-2.929688-2.929687-7.679688-2.929687-10.605469 0l-39.722657 39.722656c-2.925781 2.925782-2.925781 7.675782 0 10.605469 1.464844 1.460938 3.386719 2.195313 5.304688 2.195313s3.839844-.730469 5.300781-2.195313l39.722657-39.722656c2.929687-2.929687 2.929687-7.675781 0-10.605469zm423.175781-277.929687c-.074219-.066407-.148438-.132813-.222657-.195313-.054687-.046875-.105468-.097656-.160156-.144531-.035156-.027344-.070312-.050781-.105468-.078125-.070313-.054688-.144532-.113281-.21875-.167969-8.238282-6.550781-18.917969-8.023437-28.664063-3.90625l-59.144531 24.988281c-3.816406 1.613282-5.601563 6.011719-3.988282 9.828126 1.609376 3.816406 6.011719 5.601562 9.828126 3.988281l59.140624-24.984375c.335938-.144532.667969-.257813.992188-.371094l-354.964844 260.882812-67.164062-67.164062c-2.46875-2.46875-3.5-5.851562-2.832032-9.277344.667969-3.429687 2.898438-6.175781 6.113282-7.53125l326.359375-137.886718c3.816406-1.609376 5.601562-6.011719 3.988281-9.828126-1.609375-3.8125-6.011719-5.597656-9.824219-3.988281l-326.359375 137.886719c-7.777344 3.28125-13.382812 10.1875-15 18.472656-1.617187 8.285156.980469 16.792969 6.949219 22.757813l70.355469 70.355469 31.640625 108.925781c1.628906 5.609375 6.449219 9.476562 12.277343 9.851562.308594.019531.613282.03125.917969.03125 2.046875 0 4.007813-.445312 5.777344-1.265625l47.390625-19.535156 70.039062 70.035156c1.464844 1.464844 3.382813 2.199219 5.300782 2.199219 1.921875 0 3.839844-.734375 5.304687-2.199219 2.929688-2.925781 2.929688-7.675781 0-10.605468l-73.574219-73.570313c-.015624-.019531-.035156-.039063-.054687-.054687l-23.589844-23.59375 297.828125-326.675782c.914063 2.503906 1.121094 5.464844.039063 8.710938l-147.738281 443.214844c-1.359376 4.085937-4.546876 6.996093-8.738282 7.984374-4.191406.992188-8.34375-.1875-11.390625-3.234374l-8.328125-8.328126c-2.929687-2.929687-7.679687-2.929687-10.605468 0-2.929688 2.929688-2.929688 7.679688 0 10.605469l8.328124 8.332031c5.175782 5.175782 12.027344 7.964844 19.125 7.964844 2.097657 0 4.214844-.242187 6.316407-.738281 9.226562-2.179687 16.527343-8.847656 19.523437-17.84375l147.738282-443.214844c3.703124-11.109375.316406-23.070312-8.605469-30.632812zm-298.40625 370.15625-22.742188 9.375 9.765625-22.355469zm-20.992188-31.113281c-.554687.609374-1.003906 1.300781-1.332031 2.050781l-19.144531 43.839843-29.71875-102.296874 307.984375-226.355469zm38.316407 96.183593-57.175782 57.179688c-2.929687 2.925781-2.929687 7.675781 0 10.605469 1.460938 1.460937 3.382813 2.195312 5.300782 2.195312 1.917968 0 3.839843-.730469 5.304687-2.195312l57.175781-57.179688c2.929688-2.925781 2.929688-7.675781 0-10.605469-2.929687-2.929687-7.675781-2.929687-10.605468 0zm0 0" data-original="#000000" class="active-path" data-old_color="#007bff" fill="#007bff"/></g> </svg>
